<svg xmlns="http://www.w3.org/2000/svg" viewBox="0 0 932.26 207.2"><defs><style>.cls-1{fill:#ffb302;}</style></defs><g id="Camada_2" data-name="Camada 2"><g id="Camada_1-2" data-name="Camada 1"><path class="cls-1" d="M267.23,102.84a24,24,0,0,1,8.2,4.44,16.41,16.41,0,0,1,4.64,6.17,18.88,18.88,0,0,1,1.37,7.18,21.64,21.64,0,0,1-1.37,7.53,29.71,29.71,0,0,1-3.87,7.18,33.19,33.19,0,0,1-5.78,6.17A29.89,29.89,0,0,1,263,146a27,27,0,0,1-8.65,2.09A66,66,0,0,1,256,158.41c.1,2.24.11,4.32,0,6.26a21.77,21.77,0,0,1-.85,5.29,14.38,14.38,0,0,1-1.88,4.1,7.92,7.92,0,0,1-3.13,2.64,10.56,10.56,0,0,1-4.57.93,11,11,0,0,1-4.39-.82,8,8,0,0,1-3.11-2.32,12.78,12.78,0,0,1-2-3.64,20.42,20.42,0,0,1-1.05-4.73,47.55,47.55,0,0,1-.25-5.62c0-2,.14-4.12.35-6.34s.5-4.5.83-6.82.71-4.7,1.13-7.14.84-4.83,1.28-7.2.73-4.1.94-5.34.48-2.8.79-4.66.56-3.52.76-5a30.17,30.17,0,0,0-4.69,10q-6.77.48-8.24-3-1.28-3,1.6-7.68a31.86,31.86,0,0,1,8.75-9,36.16,36.16,0,0,1,16.4-6.73A27.89,27.89,0,0,1,267.23,102.84Zm-15.84,32.62q5.55.67,10.8-3.41a22,22,0,0,0,6.55-8.25q2.4-5.22,1.19-9.22-1.37-4.47-6.91-5.49l-1.36-.2a29,29,0,0,0-4.9-.06,9,9,0,0,0-3.36,1.6,8.59,8.59,0,0,0-2.24,2.55,11.7,11.7,0,0,0-1.25,3.47,22.27,22.27,0,0,0-.46,4.08,40.1,40.1,0,0,0,.22,4.68q.27,2.63.69,5C250.63,131.77,251,133.52,251.39,135.46Z"/><path class="cls-1" d="M310.41,100.75q5.79,0,11.89,8.24,6,8.07,10.26,21.09a92.8,92.8,0,0,1,5,25.47q.5,13-4,18.78a10.17,10.17,0,0,1-8.63,4,3.78,3.78,0,0,1-2.07-.67,5.49,5.49,0,0,1-1.68-1.91,18.33,18.33,0,0,1-1.29-2.88,26.76,26.76,0,0,1-1-3.85c-.27-1.51-.51-3-.69-4.48s-.36-3.2-.49-5.16-.25-3.79-.33-5.49-.16-3.63-.24-5.81H303.92q-.15,3.71-.3,6.63c-.1,1.95-.25,4-.45,6.17s-.42,4.06-.68,5.68-.59,3.19-1,4.73a18.77,18.77,0,0,1-1.38,3.76,7.67,7.67,0,0,1-1.82,2.36,3.74,3.74,0,0,1-2.36.92q-7.95.12-10.83-8.54-2.78-8.34-.44-22.66a106.73,106.73,0,0,1,7.47-25.36q5.13-11.82,10.92-17.34C305.63,102,308.08,100.75,310.41,100.75Zm-6.26,39.33h12.7q-.15-5-.27-8t-.39-7.1a62.44,62.44,0,0,0-.69-6.56c-.29-1.61-.66-3.21-1.1-4.81a8.39,8.39,0,0,0-1.68-3.49,3.08,3.08,0,0,0-2.31-1.08,2.74,2.74,0,0,0-1.73.62,5,5,0,0,0-1.38,2,26.72,26.72,0,0,0-1,2.89,25.56,25.56,0,0,0-.76,4c-.2,1.67-.38,3.19-.53,4.56s-.28,3.14-.39,5.35-.18,4.06-.23,5.57S304.23,137.61,304.15,140.08Z"/><path class="cls-1" d="M379.87,107.33c.79.46,1.47.64,2,1a3.35,3.35,0,0,1,1.26,1.42,4.14,4.14,0,0,1,.39,1.84,4.75,4.75,0,0,1-.4,1.84,3.27,3.27,0,0,1-1.25,1.42,2.86,2.86,0,0,1-2,.46H361.42c.38,4,1.37,10.61,3,19.92q2.55,14.35,3.08,21,1.06,13.41-2.82,18.3a9,9,0,0,1-7.44,3.27q-8.25,0-10.17-9.23-1.51-7.23.74-22.33.44-2.88,3-17.26c1-5.71,1.7-10.22,2.08-13.63H334.61a2.9,2.9,0,0,1-2.05-.46,3.43,3.43,0,0,1-1.26-1.42,4.25,4.25,0,0,1-.38-1.84,4.61,4.61,0,0,1,.4-1.84,3.37,3.37,0,0,1,1.24-1.42c.58-.38,1.26-.56,2.05-1h18.56V105a7.83,7.83,0,0,1,.81-2,3.43,3.43,0,0,1,1.42-1.26,4.11,4.11,0,0,1,1.84-.38,4.61,4.61,0,0,1,1.84.4A3.3,3.3,0,0,1,360.5,103a4.87,4.87,0,0,1,.67,2v2.33Z"/><path class="cls-1" d="M400.21,108.82q-.07,6.71,2.44,20.76.3,1.69.92,5.1,2.63,14.32,3.21,20.76Q408,169,404.22,174.15c-1.79,2.44-4.48,3.65-8.06,3.65q-8.6,0-10.6-9.25-1.57-7.25.81-22.36.47-2.85,3.09-17.26,2.54-13.68,2.65-20.11h.06V105a3.59,3.59,0,0,1,.45-1.8,3.16,3.16,0,0,1,1.15-1.22,5.15,5.15,0,0,1,1.93-.68,3.15,3.15,0,0,1,.92,0,5.43,5.43,0,0,1,2,.69,3.16,3.16,0,0,1,1.15,1.22,3.69,3.69,0,0,1,.44,1.8v3.8Z"/><path class="cls-1" d="M449,101.59c2.18.43,4.24,2.17,6.17,5.2a41.11,41.11,0,0,1,4.76,11.32,124.14,124.14,0,0,1,3,14.79,93.47,93.47,0,0,1,1,15.95,101,101,0,0,1-1.3,14.41,26.1,26.1,0,0,1-3.91,10.56q-2.79,4-6.78,4a9.27,9.27,0,0,1-4.89-1.26,8.64,8.64,0,0,1-3.28-3.69,26.6,26.6,0,0,1-1.91-5.38,30.92,30.92,0,0,1-.79-6.94q-.06-4,.09-7.73c.11-2.49.34-5.29.71-8.39s.73-5.86,1.07-8.27.73-5.07,1.19-8q.76-5,1.11-7.45c.23-1.6.44-3.41.63-5.45a17.52,17.52,0,0,0,.05-4.35c-.17-.86-.49-1.33-1-1.41a8.07,8.07,0,0,0-1.84,1.61,20,20,0,0,0-1.62,2.13A23.66,23.66,0,0,0,440,116c-.52,1.1-.93,2.06-1.25,2.87s-.69,1.83-1.1,3-.7,2.13-.88,2.71-.42,1.41-.72,2.48-.49,1.66-.53,1.78a113.75,113.75,0,0,0-4.76,26.39c.19,1.9.3,3.66.34,5.28a47.15,47.15,0,0,1-.12,4.78,25.07,25.07,0,0,1-.66,4.19A15.84,15.84,0,0,1,429,173a9.07,9.07,0,0,1-2.06,2.62,8.91,8.91,0,0,1-2.91,1.63,11.65,11.65,0,0,1-3.85.59q-8.6,0-10.6-9.25-1.57-7.23.81-22.39.47-2.85,3.09-17.26,2.54-13.67,2.65-20.11h.06v-3.76a3.6,3.6,0,0,1,.45-1.81,3.16,3.16,0,0,1,1.15-1.22,5.33,5.33,0,0,1,1.93-.68,2.84,2.84,0,0,1,.92,0,5.24,5.24,0,0,1,2,.68,3.16,3.16,0,0,1,1.15,1.22,3.7,3.7,0,0,1,.44,1.81v3.76h0q-.07,6.8,2.56,21.47,1.29-4.74,3.12-9.6c.39-1.07.72-2,1-2.66s.67-1.62,1.16-2.74.95-2.08,1.36-2.86.93-1.68,1.54-2.7a21.88,21.88,0,0,1,1.81-2.6,27.09,27.09,0,0,1,2.06-2.21,13.56,13.56,0,0,1,2.37-1.87,14.45,14.45,0,0,1,2.69-1.23,12.69,12.69,0,0,1,3.06-.62A3.81,3.81,0,0,1,449,101.59Z"/><path class="cls-1" d="M509.21,109.83q-.07,6.49,2.44,20.13c.2,1.1.51,2.75.92,4.95q2.63,13.89,3.22,20.13,1.23,13.17-2.57,18.15-2.69,3.54-8.06,3.54a13.72,13.72,0,0,1-4.05-.56,7.25,7.25,0,0,1-3-1.79,15.79,15.79,0,0,1-2.13-2.64,9.87,9.87,0,0,1-1.31-3.62c-.27-1.47-.49-2.88-.65-4.23a26.54,26.54,0,0,1-.06-5c.12-2,.25-3.73.38-5.32s.39-3.53.76-5.8.7-4.24,1-5.9.68-3.68,1.13-6.08H480.94q.93,4.86,1.41,7.64c.32,1.85.69,4.25,1.13,7.2a64.44,64.44,0,0,1,.72,7.06c.05,1.76.06,3.77,0,6.06a15.71,15.71,0,0,1-.82,5.4,23.43,23.43,0,0,1-2,3.91,6.75,6.75,0,0,1-3.26,2.78,12.54,12.54,0,0,1-4.82.85q-8.58,0-10.59-9-1.57-7,.8-21.69.46-2.76,3.09-16.74,2.54-13.26,2.66-19.5h1.84v-3.76a3.59,3.59,0,0,1,.45-1.8,3.1,3.1,0,0,1,1.15-1.2,5.21,5.21,0,0,1,1.93-.68,2.84,2.84,0,0,1,.92,0,5.3,5.3,0,0,1,2,.68,3.1,3.1,0,0,1,1.15,1.2,3.69,3.69,0,0,1,.44,1.8v3.76h0a109.93,109.93,0,0,0,2.13,19h19.09a126.09,126.09,0,0,0,2.47-19h-1.73v-3.68a3.34,3.34,0,0,1,.59-2,3.51,3.51,0,0,1,1.48-1.23,4.61,4.61,0,0,1,1.93-.37,5.2,5.2,0,0,1,1.94.39,3.39,3.39,0,0,1,1.48,1.21,3.33,3.33,0,0,1,.58,2v3.68Z"/><path class="cls-1" d="M544.79,100.75q5.78,0,11.89,8.24,6,8.07,10.26,21.09a92.77,92.77,0,0,1,4.95,25.47q.51,13-4,18.78a10.18,10.18,0,0,1-8.63,4,3.81,3.81,0,0,1-2.08-.67,5.47,5.47,0,0,1-1.67-1.91,16.66,16.66,0,0,1-1.29-2.88,24.36,24.36,0,0,1-1-3.85c-.28-1.51-.51-3-.7-4.48s-.35-3.2-.49-5.16-.25-3.79-.32-5.49-.16-3.63-.24-5.81H538.29q-.15,3.71-.3,6.63c-.09,1.95-.24,4-.44,6.17s-.43,4.06-.68,5.68a47.74,47.74,0,0,1-1,4.73,17.61,17.61,0,0,1-1.38,3.76,7.67,7.67,0,0,1-1.82,2.36,3.72,3.72,0,0,1-2.36.92q-7.95.12-10.82-8.54-2.79-8.34-.45-22.66a107.22,107.22,0,0,1,7.48-25.36q5.13-11.82,10.91-17.34C540,102,542.45,100.75,544.79,100.75Zm-6.26,39.33h12.69q-.15-5-.27-8c-.08-2-.2-4.34-.38-7.1a62,62,0,0,0-.7-6.56c-.29-1.61-.65-3.21-1.1-4.81a8.39,8.39,0,0,0-1.67-3.49,3.08,3.08,0,0,0-2.31-1.08,2.75,2.75,0,0,0-1.74.62,5.17,5.17,0,0,0-1.38,2,29,29,0,0,0-1,2.89,27,27,0,0,0-.75,4q-.32,2.5-.54,4.56c-.14,1.36-.27,3.14-.38,5.35s-.19,4.06-.24,5.57S538.61,137.61,538.53,140.08Z"/><path class="cls-1" d="M635.45,105v5.16a6.44,6.44,0,0,1-.24,1.69c0,2.48-.11,4.94-.21,7.4s-.26,5.38-.5,8.74-.54,6.57-.88,9.62-.82,6.29-1.41,9.7-1.25,6.54-2,9.4a69,69,0,0,1-2.73,8.27,33.62,33.62,0,0,1-3.56,6.75,16,16,0,0,1-4.52,4.4,10.13,10.13,0,0,1-5.54,1.65h-.15l-.12,0-.15,0h-.12a10.24,10.24,0,0,1-5.54-1.62,15.88,15.88,0,0,1-4.53-4.33,33.62,33.62,0,0,1-3.58-6.62,65.57,65.57,0,0,1-2.8-8.14q-1.14-4.23-2.06-9.27c-.6-3.36-1.1-6.57-1.48-9.61s-.69-6.23-1-9.55-.45-6.22-.57-8.69-.21-4.94-.27-7.41a5.33,5.33,0,0,1-.09-1V105a3.86,3.86,0,0,1,.42-1.81A3,3,0,0,1,593,102a5.13,5.13,0,0,1,1.85-.68,3.09,3.09,0,0,1,1,0,5.47,5.47,0,0,1,1.85.68,3.08,3.08,0,0,1,1.1,1.21,3.86,3.86,0,0,1,.42,1.81,128.67,128.67,0,0,0,.91,15.32A111.52,111.52,0,0,0,602.49,134a87,87,0,0,0,3.38,10.79,29.35,29.35,0,0,0,3.88,7.33q2,2.58,3.84,2.58t4-2.58a26.87,26.87,0,0,0,3.81-7.31A84,84,0,0,0,624.56,134a117.64,117.64,0,0,0,2.2-13.67,144,144,0,0,0,.81-15.32h.15a3.59,3.59,0,0,1,.56-2,3.34,3.34,0,0,1,1.44-1.26,4.17,4.17,0,0,1,1.86-.39,4.68,4.68,0,0,1,1.87.4,3.32,3.32,0,0,1,1.44,1.25A3.67,3.67,0,0,1,635.45,105Z"/><path class="cls-1" d="M652.48,108.82q-.06,6.71,2.44,20.76.32,1.69.93,5.1,2.63,14.32,3.21,20.76,1.25,13.59-2.56,18.71c-1.79,2.44-4.48,3.65-8.06,3.65q-8.6,0-10.6-9.25-1.58-7.25.81-22.36.45-2.85,3.08-17.26,2.53-13.68,2.66-20.11h.06V105a3.59,3.59,0,0,1,.45-1.8A3.21,3.21,0,0,1,646,102a5.28,5.28,0,0,1,1.93-.68,3.22,3.22,0,0,1,.93,0,5.5,5.5,0,0,1,2,.69,3.06,3.06,0,0,1,1.14,1.22,3.59,3.59,0,0,1,.45,1.8v3.8Z"/><path class="cls-1" d="M702.21,138.63a39.8,39.8,0,0,1,10.61,14,29.36,29.36,0,0,1,3,14.24q-.48,6.41-4.63,9.13a11.42,11.42,0,0,1-6.49,1.63,6.08,6.08,0,0,1-3.89-1.36,9.24,9.24,0,0,1-2.61-3.65,35.91,35.91,0,0,1-1.69-5.16q-.7-2.85-1.32-6.2c-.4-2.23-.82-4.4-1.24-6.49a48.46,48.46,0,0,0-1.75-6.32,24.25,24.25,0,0,0-2.6-5.4q-1.21.15-2.82.21a106.32,106.32,0,0,1,2.49,15.18c.1,2.24.11,4.32,0,6.26a21.77,21.77,0,0,1-.85,5.29,14.38,14.38,0,0,1-1.88,4.1,7.85,7.85,0,0,1-3.13,2.64,10.52,10.52,0,0,1-4.56.93,11.94,11.94,0,0,1-3.88-.58,7,7,0,0,1-2.89-1.82,14.28,14.28,0,0,1-2-2.73,11.54,11.54,0,0,1-1.28-3.74c-.28-1.5-.49-2.95-.64-4.36a34.88,34.88,0,0,1-.06-5.1c.11-2,.24-3.82.38-5.47s.38-3.64.72-6,.66-4.36.95-6.08.65-3.82,1.08-6.29a6.31,6.31,0,0,1,.39-2.11q2-11.38,2.61-15.86a32.59,32.59,0,0,0-4.75,10.55q-6.75.48-8.24-3-1.28-3,1.6-7.68a32,32,0,0,1,8.75-9,36.2,36.2,0,0,1,16.4-6.73,28.73,28.73,0,0,1,19.29,4.3,17.34,17.34,0,0,1,4.49,4.11,15.65,15.65,0,0,1,2.42,4.74,13.76,13.76,0,0,1,.59,5.12,19.63,19.63,0,0,1-1.12,5.2,22.34,22.34,0,0,1-2.57,5,28.93,28.93,0,0,1-3.9,4.57A30.41,30.41,0,0,1,702.21,138.63Zm-6.76-29.45v0a24.65,24.65,0,0,0-5.16-.5,6.83,6.83,0,0,0-3.54,1.87,8.82,8.82,0,0,0-2.08,3.39,18.23,18.23,0,0,0-.81,4.76,39,39,0,0,0,.1,5.61q.25,2.82.82,6.31a15.89,15.89,0,0,0,11.38-1.72,17,17,0,0,0,6.62-6.16q2.49-4.12,1.27-7.66-1.45-4.23-7.8-5.75Z"/><path class="cls-1" d="M767,107.33c.79.46,1.48.64,2,1a3.49,3.49,0,0,1,1.26,1.42,4.14,4.14,0,0,1,.39,1.84,4.75,4.75,0,0,1-.4,1.84,3.34,3.34,0,0,1-1.25,1.42,2.89,2.89,0,0,1-2,.46H748.56c.37,4,1.37,10.61,3,19.92q2.55,14.35,3.09,21,1.07,13.41-2.82,18.3a9,9,0,0,1-7.44,3.27q-8.25,0-10.18-9.23-1.5-7.23.75-22.33.43-2.88,3-17.26c1-5.71,1.7-10.22,2.08-13.63H721.75a2.9,2.9,0,0,1-2-.46,3.43,3.43,0,0,1-1.26-1.42,4.11,4.11,0,0,1-.38-1.84,4.61,4.61,0,0,1,.4-1.84,3.3,3.3,0,0,1,1.24-1.42c.58-.38,1.26-.56,2-1h18.7V105a4.86,4.86,0,0,1,.66-2,3.45,3.45,0,0,1,1.43-1.26,4.08,4.08,0,0,1,1.84-.38,4.52,4.52,0,0,1,1.83.4,3.27,3.27,0,0,1,1.43,1.24,8.59,8.59,0,0,1,.81,2v2.33Z"/><path class="cls-1" d="M817.45,109.21q.27,3.67,1,8.5c.51,3.21,1,6.23,1.64,9.07s1.15,5.9,1.7,9.18,1,6.32,1.39,9.12a65.2,65.2,0,0,1,.55,8.55,42.37,42.37,0,0,1-.66,7.85,21.55,21.55,0,0,1-2.4,6.6,16.73,16.73,0,0,1-4.51,5.19,21.14,21.14,0,0,1-7.14,3.29,38.3,38.3,0,0,1-10.19,1.22l-.14,0h-.22l-.13,0a37.76,37.76,0,0,1-10.63-1.34,20.08,20.08,0,0,1-7.29-3.65A17.45,17.45,0,0,1,776,167.1a22.37,22.37,0,0,1-2.16-7.22,54.49,54.49,0,0,1-.33-8.48,72.49,72.49,0,0,1,.87-9.21q.74-4.58,1.63-9.7c.61-3.42,1.2-6.63,1.8-9.64s1.09-6.11,1.5-9.33a68.05,68.05,0,0,0,.61-8.52,3.8,3.8,0,0,1,.55-2,3.44,3.44,0,0,1,1.4-1.26,4,4,0,0,1,1.81-.38,4.43,4.43,0,0,1,1.81.4,3.26,3.26,0,0,1,1.4,1.24,3.72,3.72,0,0,1,.55,2v15.45a4,4,0,0,1-.15,1.07q0,3.49,0,6.15c0,1.77.08,3.66.17,5.66s.21,3.76.37,5.25.38,3,.67,4.59a24.25,24.25,0,0,0,1,4,21.47,21.47,0,0,0,1.47,3.15,8.41,8.41,0,0,0,2,2.42,9,9,0,0,0,2.58,1.44,9.55,9.55,0,0,0,3.25.53,10.84,10.84,0,0,0,5.1-1.12,8.75,8.75,0,0,0,3.43-3.24,18.72,18.72,0,0,0,2.07-5.1,34.2,34.2,0,0,0,1-6.69q.22-3.69.28-8c0-2.86,0-5.88-.15-9a4.42,4.42,0,0,1-.15-1.07V116q-.18-7.11-.18-11h-.34a3.8,3.8,0,0,1,.55-2,3.44,3.44,0,0,1,1.4-1.26,4,4,0,0,1,1.81-.38,4.43,4.43,0,0,1,1.81.4,3.26,3.26,0,0,1,1.4,1.24,3.72,3.72,0,0,1,.55,2Z"/><path class="cls-1" d="M852.89,100.75q5.77,0,11.89,8.24,6,8.07,10.26,21.09a92.8,92.8,0,0,1,5,25.47q.5,13-4,18.78a10.17,10.17,0,0,1-8.63,4,3.78,3.78,0,0,1-2.07-.67,5.49,5.49,0,0,1-1.68-1.91,18.33,18.33,0,0,1-1.29-2.88,25.5,25.5,0,0,1-1-3.85c-.28-1.51-.51-3-.7-4.48s-.35-3.2-.48-5.16-.25-3.79-.33-5.49-.16-3.63-.24-5.81H846.39q-.14,3.71-.29,6.63c-.1,1.95-.25,4-.45,6.17s-.42,4.06-.68,5.68-.59,3.19-1,4.73a18.77,18.77,0,0,1-1.38,3.76,7.7,7.7,0,0,1-1.83,2.36,3.69,3.69,0,0,1-2.35.92q-7.95.12-10.83-8.54-2.79-8.34-.44-22.66a106.73,106.73,0,0,1,7.47-25.36q5.13-11.82,10.91-17.34C848.1,102,850.56,100.75,852.89,100.75Zm-6.26,39.33h12.69q-.14-5-.26-8t-.39-7.1a65.28,65.28,0,0,0-.69-6.56c-.29-1.61-.66-3.21-1.1-4.81a8.51,8.51,0,0,0-1.68-3.49,3.08,3.08,0,0,0-2.31-1.08,2.79,2.79,0,0,0-1.74.62,5.06,5.06,0,0,0-1.37,2,24.74,24.74,0,0,0-1,2.89,25.56,25.56,0,0,0-.76,4c-.21,1.67-.38,3.19-.53,4.56s-.28,3.14-.39,5.35-.19,4.06-.24,5.57S846.71,137.61,846.63,140.08Z"/><path class="cls-1" d="M927.76,143.3a5.94,5.94,0,0,1,2.55,2.83,16.92,16.92,0,0,1,1.62,5.31,33.68,33.68,0,0,1,.28,6.68,19.47,19.47,0,0,1-1.76,7,23.79,23.79,0,0,1-4.19,6.3A18.41,18.41,0,0,1,919,176a30.89,30.89,0,0,1-10.84,1.75,44.49,44.49,0,0,1-10.75-1.15,22.92,22.92,0,0,1-7.49-3.16,16.29,16.29,0,0,1-4.7-5,19.29,19.29,0,0,1-2.44-6.42,43.45,43.45,0,0,1-.65-7.69,61.77,61.77,0,0,1,.56-8.49c.38-2.82.83-5.87,1.36-9.17s1-6.41,1.57-9.37,1-6.11,1.33-9.46a85.8,85.8,0,0,0,.54-9.09V105a3.6,3.6,0,0,1,.45-1.81A3.21,3.21,0,0,1,889,102a5.28,5.28,0,0,1,1.55-.61,4.11,4.11,0,0,1,1.71,0,5.13,5.13,0,0,1,1.56.61,3.06,3.06,0,0,1,1.14,1.22,3.6,3.6,0,0,1,.45,1.81v15.45l-.09.71c-.08,3.08-.11,6.07-.08,8.95s.1,5.6.19,8.13a49.67,49.67,0,0,0,.72,7,29.57,29.57,0,0,0,1.56,5.7,11.37,11.37,0,0,0,2.68,4.08,8.65,8.65,0,0,0,4.07,2.19,15.34,15.34,0,0,0,5.3.34,7.61,7.61,0,0,0,3.8-1.57,8.78,8.78,0,0,0,2.42-3,12.43,12.43,0,0,0,1.15-4,6.75,6.75,0,0,1,1.19-3.18,7.24,7.24,0,0,1,2.57-2.31,7.65,7.65,0,0,1,6.83-.27Z"/><path class="cls-1" d="M138.82,0c12.87,0,23.3,19.58,23.3,36.16s-10.43,30-23.3,30-23.3-13.45-23.3-30S126,0,138.82,0Z"/><path class="cls-1" d="M72.61,0c12.87,0,23.3,19.58,23.3,36.16s-10.43,30-23.3,30-23.3-13.45-23.3-30S59.74,0,72.61,0Z"/><path class="cls-1" d="M2.82,87.48C-2.64,73.8-.25,54.11,10.66,49.76S36.87,58,42.33,71.7s1.05,28.31-9.86,32.66S8.29,101.16,2.82,87.48Z"/><path class="cls-1" d="M208.6,87.48c-5.46,13.68-18.74,21.24-29.65,16.88s-15.32-19-9.85-32.66,20.76-26.3,31.67-21.94S214.07,73.8,208.6,87.48Z"/><path class="cls-1" d="M189.08,163.06c-2.5-11.21-8.46-21.31-15.05-30.68-15.43-21.94-40.16-44.1-68.32-44.1s-52.87,22.16-68.31,44.1c-6.6,9.37-12.55,19.47-15,30.68s-1.14,23.74,5.81,32.84,20.09,13.65,30.37,8.73c6.12-2.93,11.07-8.84,17.81-9.41,6.19-.52,11.67,3.65,16.83,7.14,3.73,2.52,8.23,4.81,12.54,4.84s8.81-2.32,12.55-4.84c5.16-3.49,10.63-7.66,16.83-7.14,6.74.57,11.69,6.48,17.8,9.41,10.29,4.92,23.44.38,30.38-8.73S191.58,174.27,189.08,163.06ZM82.65,123.38a32.5,32.5,0,0,1,22.92-9.51,25.7,25.7,0,0,1,16.37,31c-.22.78-.46,1.55-.75,2.31A15.5,15.5,0,0,0,104,131,27.77,27.77,0,0,0,79.53,165.9,32.75,32.75,0,0,1,82.65,123.38Zm23.91,21.71V136.4a9.62,9.62,0,0,1,8.69,8.69Zm8.69,2.47a9.63,9.63,0,0,1-8.69,8.7v-8.7Zm-19-2.47a9.64,9.64,0,0,1,8.7-8.69v8.69Zm8.7,2.47v8.7a9.65,9.65,0,0,1-8.7-8.7Zm.8,45-22.95-23a26,26,0,0,1,12-34.16,15.62,15.62,0,0,0,0,22l10.35,10.35a20.07,20.07,0,0,0,20.28,5.15Zm23.15-23.14A18.31,18.31,0,0,1,107,167.15l9.72-9.72.35-.36a27.48,27.48,0,0,0-6.37-42.83,32.58,32.58,0,0,1,18.18,55.2Z"/></g></g></svg>