<svg xmlns="http://www.w3.org/2000/svg" viewBox="0 0 2267.72 655.51"><defs><style>.cls-1{fill:#636363;}.cls-2{fill:#fff;}</style></defs><g id="Camada_2" data-name="Camada 2"><g id="Icon"><rect class="cls-1" width="2267.72" height="655.51" rx="77.5"/><path class="cls-2" d="M752.14,182.75l-9.51,31.3H721.82l35.4-110.45H783l35.89,110.45H797.2l-10-31.3Zm31.63-15.24-8.69-27.2c-2.13-6.72-3.93-14.26-5.57-20.65h-.33c-1.64,6.39-3.28,14.09-5.25,20.65l-8.52,27.2Z"/><path class="cls-2" d="M849,134.24l12.95,40.49c2.29,7,3.93,13.43,5.41,20h.49c1.48-6.56,3.27-12.79,5.41-20L886,134.24h21.14l-30.48,79.81H856.83l-29.66-79.81Z"/><path class="cls-2" d="M987.58,194.88c0,7.21.33,14.26,1.32,19.17H970.7l-1.47-8.84h-.49c-4.75,6.22-13.11,10.65-23.6,10.65-16.06,0-25.07-11.64-25.07-23.77,0-20,17.86-30.31,47.36-30.15v-1.31c0-5.25-2.13-13.93-16.23-13.93a42.21,42.21,0,0,0-21.47,5.9l-3.93-13.11c5.9-3.61,16.23-7.05,28.84-7.05,25.57,0,32.94,16.22,32.94,33.76Zm-19.66-19.83c-14.26-.17-27.86,2.79-27.86,14.92,0,7.86,5.08,11.46,11.47,11.46a16.56,16.56,0,0,0,15.9-11,13.6,13.6,0,0,0,.49-4.42Z"/><path class="cls-2" d="M1026.07,122.77c-6.72,0-11.14-4.92-11.14-10.82,0-6.22,4.59-11,11.31-11,6.88,0,11.14,4.75,11.31,11,0,5.9-4.43,10.82-11.31,10.82Zm-10,91.28V134.24h20.15v79.81Z"/><path class="cls-2" d="M1065.23,97.53h20.15V214.05h-20.15Z"/><path class="cls-2" d="M1176.49,194.88c0,7.21.33,14.26,1.31,19.17h-18.19l-1.48-8.84h-.49c-4.75,6.22-13.1,10.65-23.6,10.65-16.06,0-25.07-11.64-25.07-23.77,0-20,17.87-30.31,47.36-30.15v-1.31c0-5.25-2.12-13.93-16.22-13.93a42.19,42.19,0,0,0-21.47,5.9l-3.93-13.11c5.9-3.61,16.22-7.05,28.84-7.05,25.56,0,32.94,16.22,32.94,33.76Zm-19.67-19.83c-14.25-.17-27.86,2.79-27.86,14.92,0,7.86,5.08,11.46,11.48,11.46a16.53,16.53,0,0,0,15.89-11,13.6,13.6,0,0,0,.49-4.42Z"/><path class="cls-2" d="M1205,97.53h20.15v47.69h.33c4.92-7.7,13.61-12.78,25.57-12.78,19.5,0,33.43,16.22,33.26,40.48,0,28.68-18.19,42.94-36.21,42.94-10.33,0-19.5-3.94-25.24-13.77h-.33l-1,12h-17.2c.33-5.4.66-14.25.66-22.29Zm20.15,83.58a22,22,0,0,0,.5,4.75A18.41,18.41,0,0,0,1243.5,200c12.62,0,20.32-10,20.32-26.22,0-14.1-6.72-25.56-20.16-25.56-8.19,0-15.73,5.89-17.86,14.74a24,24,0,0,0-.66,5.25Z"/><path class="cls-2" d="M1308,97.53h20.15V214.05H1308Z"/><path class="cls-2" d="M1371.61,179.81c.49,14.42,11.79,20.64,24.58,20.64a64.26,64.26,0,0,0,22.12-3.6l3,13.76c-6.88,2.95-16.4,5.08-27.86,5.08-25.9,0-41.14-15.89-41.14-40.31,0-22.12,13.44-42.94,39-42.94,25.88,0,34.41,21.31,34.41,38.84a50.73,50.73,0,0,1-.65,8.53Zm35.07-14.1c.16-7.37-3.11-19.5-16.55-19.5-12.46,0-17.7,11.31-18.52,19.5Z"/><path class="cls-2" d="M1525.13,215.86c-22.45,0-40-15.41-40-41.13,0-26.23,17.21-42.29,41.31-42.29,23.75,0,39.66,16.71,39.66,41,0,29.34-20.65,42.45-40.81,42.45Zm.66-14.59c11.46,0,19.5-11.14,19.5-27.36,0-12.46-5.58-26.88-19.33-26.88-14.27,0-20,13.93-20,27.2,0,15.41,7.71,27,19.68,27Z"/><path class="cls-2" d="M1589.84,158c0-9.18-.33-16.88-.66-23.77h17.54l1,12h.49c3.61-6.23,12.29-13.77,25.57-13.77,13.93,0,28.35,9,28.35,34.25v47.36H1642V169c0-11.47-4.26-20.16-15.24-20.16-8,0-13.6,5.73-15.73,11.8a18.58,18.58,0,0,0-1,6.39v47h-20.16Z"/><path class="cls-2" d="M1755,113.76v20.48h19.17v15.08H1755v35.07c0,9.84,2.62,14.75,10.32,14.75a26.18,26.18,0,0,0,7.87-.82l.32,15.24c-3,1.15-8.35,2.13-14.58,2.13-7.54,0-13.6-2.46-17.37-6.55-4.43-4.59-6.39-12-6.39-22.46V149.32h-11.31V134.24h11.31V119.33Z"/><path class="cls-2" d="M1796.6,97.53h20.16v47.53h.33a26.4,26.4,0,0,1,10-9,28.41,28.41,0,0,1,13.94-3.61c13.59,0,27.85,9,27.85,34.58v47h-20.15v-44.9c0-11.47-4.27-20.32-15.41-20.32-7.87,0-13.43,5.24-15.73,11.31a18.22,18.22,0,0,0-.82,6.06v47.85H1796.6Z"/><path class="cls-2" d="M1911.78,179.81c.49,14.42,11.79,20.64,24.58,20.64a64.26,64.26,0,0,0,22.12-3.6l3,13.76c-6.88,2.95-16.4,5.08-27.86,5.08-25.9,0-41.14-15.89-41.14-40.31,0-22.12,13.44-42.94,39-42.94,25.88,0,34.4,21.31,34.4,38.84a51,51,0,0,1-.64,8.53Zm35.07-14.1c.16-7.37-3.11-19.5-16.55-19.5-12.46,0-17.7,11.31-18.52,19.5Z"/><path class="cls-2" d="M899.76,519.44H861.38l-21-66.13h-73.1l-20.06,66.13H709.78l72.49-225.07H827ZM834,425.57,815,366.8q-3.06-9-11.37-42.38H803q-3.35,14.37-10.7,42.38l-18.71,58.77Z"/><path class="cls-2" d="M1086.11,436.28q0,41.4-22.38,65.45-20,21.38-49.74,21.36-32.07,0-46.1-23h-.64v85.48H931.17v-175q0-26-1.33-53.42h31.71l2,25.72h.68q18-29.07,54.76-29.06c19.11,0,35.12,7.58,47.91,22.72s19.2,35.07,19.2,59.76m-36.74,1.32q0-23.7-10.68-39.07-11.7-16-31.37-16a37.41,37.41,0,0,0-24.21,8.85,41.12,41.12,0,0,0-14.2,23.24,46.78,46.78,0,0,0-1.66,11v27.07q0,17.72,10.81,29.87c7.27,8.16,16.67,12.19,28.24,12.19,13.58,0,24.17-5.2,31.71-15.68s11.36-24.26,11.36-41.42"/><path class="cls-2" d="M1272.74,436.28q0,41.4-22.37,65.45-20,21.38-49.75,21.36-32,0-46.06-23h-.66v85.48h-36.06v-175q0-26-1.33-53.42h31.7l2,25.72h.69q18-29.07,54.74-29.06,28.68,0,47.92,22.72t19.16,59.76M1236,437.6q0-23.7-10.7-39.07-11.7-16-31.38-16a37.45,37.45,0,0,0-24.21,8.85,41.07,41.07,0,0,0-14.17,23.24,45.42,45.42,0,0,0-1.68,11v27.07q0,17.72,10.83,29.87c7.24,8.16,16.62,12.19,28.24,12.19,13.56,0,24.16-5.2,31.71-15.68S1236,454.76,1236,437.6"/><path class="cls-2" d="M1481.46,456.31c0,19.15-6.63,34.71-20,46.75q-22,19.73-61.28,19.69-36.3,0-58.35-14l8.36-30.06A98.84,98.84,0,0,0,1402.32,493q20.39,0,31.75-9.17t11.33-24.6a31.46,31.46,0,0,0-9.33-23.07q-9.35-9.39-31.1-17.41-59.1-22.08-59.07-64.55,0-27.76,20.7-45.47T1421.69,291q30.74,0,51.08,10.7l-9,29.38q-19-10.32-43.1-10.34-19,0-29.69,9.35a26.8,26.8,0,0,0-9,20.37,27.42,27.42,0,0,0,10.33,22q9,8,32.72,17.38,29.06,11.7,42.74,27.37t13.69,39.07"/><path class="cls-2" d="M1600.67,384.18h-39.74V463q0,30,21.06,30.05a65.1,65.1,0,0,0,16-1.66l1,27.38c-7.08,2.67-16.46,4-28,4q-21.39,0-33.39-13t-12-43.76V384.18h-23.71V357.12h23.71v-29.7l35.4-10.7v40.4h39.74Z"/><path class="cls-2" d="M1780,437q0,37.41-21.36,61.44-22.41,24.74-59.43,24.7c-23.86,0-42.79-7.9-56.94-23.71s-21.21-35.73-21.21-59.74q0-37.77,21.87-61.77t58.93-24.07q35.7,0,57.44,23.71Q1780,400.6,1780,437m-37.41,1.16q0-22.44-9.69-38.5-11.31-19.42-32.37-19.43-21.75,0-33.06,19.43c-6.47,10.72-9.65,23.77-9.65,39.2,0,14.95,3.18,27.78,9.65,38.48q11.67,19.43,32.76,19.42c13.76,0,24.57-6.57,32.34-19.75q10-16.41,10-38.85"/><path class="cls-2" d="M1897.18,388.85a64,64,0,0,0-11.34-1c-12.67,0-22.5,4.81-29.41,14.37q-9,12.69-9,32v85.15h-36l.31-111.17q0-28.06-1.32-51.11h31.39l1.33,31.07h1a55.55,55.55,0,0,1,18-25.71,43.64,43.64,0,0,1,26.08-8.7,59.32,59.32,0,0,1,9,.64Z"/><path class="cls-2" d="M2058.44,430.6a87,87,0,0,1-1.3,16.36H1949q.62,24,15.68,36.76c9.1,7.57,20.92,11.31,35.4,11.31q24,0,43.73-7.67l5.66,25q-23,10-54.44,10-37.7,0-59.26-22.23t-21.53-59.61q0-36.69,20.06-61.12,21-26,56.73-26,35.05,0,53.15,26,14.28,20.73,14.29,51.11m-34.38-9.36q.38-16-7-27.7c-6.24-10-15.85-15-28.75-15q-17.65,0-28.69,14.71c-6,7.8-9.59,17.12-10.66,28Z"/><path class="cls-2" d="M396.55,203.17c-12.24,6.13-23.9,8.75-35.55,7.87-1.75-11.65,0-23.6,4.95-36.72A103.17,103.17,0,0,1,384,144a96.87,96.87,0,0,1,29.43-22.73c11.95-6.12,23.32-9.33,34.1-9.91,1.46,12.24,0,24.48-4.37,37.3a104.12,104.12,0,0,1-18.07,31.76A86.39,86.39,0,0,1,396.55,203.17ZM273,536c-7.29-4.66-14.86-11.36-22.44-20.69a284.26,284.26,0,0,1-19.23-26.22c-13.12-18.95-23.9-40.8-32.06-65.57-9-27.1-13.4-53-13.4-78.39,0-28.27,6.12-53,18.06-73.73A104.63,104.63,0,0,1,241.81,232a98.38,98.38,0,0,1,51.29-15.15,87.54,87.54,0,0,1,20.4,2.62c5.24,1.46,11.65,3.79,19.23,6.71,9.91,3.79,15.45,6.12,17.19,6.7a45.65,45.65,0,0,0,14.58,2.91,42.75,42.75,0,0,0,11.65-2.33c2.62-.87,7.58-2.62,14.57-5.54,7-2.62,12.53-4.66,16.91-6.41a138,138,0,0,1,18.94-4.66,82.64,82.64,0,0,1,20.69-.87,118.1,118.1,0,0,1,35,7.57,94.25,94.25,0,0,1,44.29,35.27,86.38,86.38,0,0,0-13.11,9.9,108,108,0,0,0-22.15,27.1,91.86,91.86,0,0,0-11.65,45.47c.29,19.52,5.24,36.71,15.15,51.58a96.28,96.28,0,0,0,27.68,27.68,71.25,71.25,0,0,0,15.16,8.16,210.26,210.26,0,0,1-7.29,19.82,257.86,257.86,0,0,1-22.44,41.67c-7.87,11.37-14,19.82-18.65,25.35-7.28,8.75-14.28,15.16-21.27,19.82a47.6,47.6,0,0,1-26.23,7.87,57.82,57.82,0,0,1-18.65-2.33c-3.5-1.17-8.74-2.92-15.45-5.83A138.57,138.57,0,0,0,391.31,529a85.35,85.35,0,0,0-42,0A126.4,126.4,0,0,0,333,534.81c-7.57,3.2-12.53,5.24-15.44,6.12a76.49,76.49,0,0,1-17.78,3.2C290.48,544.13,281.73,541.51,273,536Z"/></g></g></svg>