<svg xmlns="http://www.w3.org/2000/svg" viewBox="0 0 346.82 407.41"><defs><style>.cls-1{fill:#4a128c;}</style></defs><g id="Camada_2" data-name="Camada 2"><g id="Camada_1-2" data-name="Camada 1"><path class="cls-1" d="M42.11,233.18a24,24,0,0,1,8.2,4.45A16.33,16.33,0,0,1,55,243.8,18.8,18.8,0,0,1,56.32,251,21.65,21.65,0,0,1,55,258.51a29.84,29.84,0,0,1-3.87,7.17,32.88,32.88,0,0,1-5.78,6.17,30.22,30.22,0,0,1-7.47,4.47,27.58,27.58,0,0,1-8.65,2.09,65.79,65.79,0,0,1,1.66,10.35c.1,2.23.1,4.32,0,6.25a22.35,22.35,0,0,1-.85,5.3,14.44,14.44,0,0,1-1.88,4.09A7.76,7.76,0,0,1,25,307a10.56,10.56,0,0,1-4.57.93,11.13,11.13,0,0,1-4.39-.81,7.91,7.91,0,0,1-3.11-2.33,12.86,12.86,0,0,1-2-3.63,20.54,20.54,0,0,1-1-4.73,47.65,47.65,0,0,1-.25-5.62c0-2,.13-4.12.35-6.35s.5-4.5.83-6.82.71-4.7,1.13-7.13.84-4.84,1.28-7.21.73-4.09.94-5.34.48-2.79.79-4.65.56-3.52.76-5A30,30,0,0,0,11,258.42q-6.76.48-8.24-3-1.28-3,1.6-7.68a31.7,31.7,0,0,1,8.75-9,36.18,36.18,0,0,1,16.4-6.74A28,28,0,0,1,42.11,233.18ZM26.27,265.8q5.55.69,10.8-3.41a22,22,0,0,0,6.55-8.24q2.4-5.22,1.19-9.22-1.37-4.49-6.91-5.49l-1.36-.21a29,29,0,0,0-4.9-.06,9.12,9.12,0,0,0-3.36,1.6A8.71,8.71,0,0,0,26,243.32a11.7,11.7,0,0,0-1.25,3.47,22.46,22.46,0,0,0-.46,4.08,40.16,40.16,0,0,0,.22,4.69q.27,2.63.69,5C25.51,262.11,25.86,263.87,26.27,265.8Z"/><path class="cls-1" d="M85.29,230.83q5.79,0,11.89,8.24,6,8.07,10.26,21.09a92.66,92.66,0,0,1,5,25.47q.5,13-4,18.77a10.15,10.15,0,0,1-8.63,4,3.78,3.78,0,0,1-2.07-.67A5.49,5.49,0,0,1,96,305.83,18.33,18.33,0,0,1,94.69,303a27.1,27.1,0,0,1-1-3.85c-.27-1.51-.51-3-.69-4.48s-.36-3.2-.49-5.16-.25-3.79-.33-5.49-.16-3.64-.24-5.81H78.8q-.15,3.7-.3,6.63T78.05,291q-.28,3.24-.68,5.67c-.26,1.63-.59,3.2-1,4.73A18.65,18.65,0,0,1,75,305.13a7.67,7.67,0,0,1-1.82,2.36,3.74,3.74,0,0,1-2.36.92q-7.95.12-10.83-8.54-2.79-8.34-.44-22.66A106.73,106.73,0,0,1,67,251.85Q72.15,240,77.94,234.5,81.8,230.83,85.29,230.83ZM79,270.16h12.7q-.15-5-.27-8c-.08-2-.21-4.34-.39-7.1a62.44,62.44,0,0,0-.69-6.56c-.29-1.61-.66-3.21-1.1-4.82a8.4,8.4,0,0,0-1.68-3.48,3.08,3.08,0,0,0-2.31-1.08,2.74,2.74,0,0,0-1.73.62,5,5,0,0,0-1.38,2,24.74,24.74,0,0,0-1,2.89,25.56,25.56,0,0,0-.76,4c-.21,1.67-.38,3.19-.53,4.55s-.28,3.15-.39,5.36-.19,4.06-.23,5.57S79.11,267.69,79,270.16Z"/><path class="cls-1" d="M154.69,238.16c.79.46,1.47.65,2.05,1a3.45,3.45,0,0,1,1.26,1.43,4.2,4.2,0,0,1,.38,1.83,4.54,4.54,0,0,1-.4,1.84,3.27,3.27,0,0,1-1.24,1.43,3,3,0,0,1-2.05.45H136.25c.37,4,1.37,10.61,3,19.92q2.55,14.35,3.08,21,1.08,13.4-2.81,18.3a9,9,0,0,1-7.45,3.26q-8.24,0-10.17-9.23-1.52-7.23.74-22.33.45-2.87,3-17.26c1-5.71,1.7-10.22,2.07-13.63H109.44a2.93,2.93,0,0,1-2-.45,3.45,3.45,0,0,1-1.26-1.43,4.08,4.08,0,0,1-.39-1.84,4.7,4.7,0,0,1,.4-1.83,3.36,3.36,0,0,1,1.25-1.43c.57-.37,1.25-.56,2-1H128v-2.33a8,8,0,0,1,.8-2,3.45,3.45,0,0,1,1.42-1.27,4.28,4.28,0,0,1,1.84-.38,4.54,4.54,0,0,1,1.84.4,3.3,3.3,0,0,1,1.43,1.25,4.92,4.92,0,0,1,.67,2v2.33Z"/><path class="cls-1" d="M175,239.16q-.06,6.71,2.44,20.76.32,1.69.93,5.1,2.63,14.33,3.21,20.76,1.23,13.58-2.56,18.71c-1.8,2.43-4.48,3.65-8.07,3.65q-8.58,0-10.59-9.25-1.57-7.25.8-22.36.47-2.85,3.09-17.26,2.53-13.68,2.66-20.11H167v-3.8a3.65,3.65,0,0,1,.45-1.81,3.18,3.18,0,0,1,1.14-1.21,5.28,5.28,0,0,1,1.93-.68,3.22,3.22,0,0,1,.93,0,5.5,5.5,0,0,1,2,.69,3.18,3.18,0,0,1,1.14,1.21,3.65,3.65,0,0,1,.45,1.81v3.8Z"/><path class="cls-1" d="M223.77,231.89c2.18.44,4.24,2.17,6.18,5.21a41.52,41.52,0,0,1,4.76,11.31,126.34,126.34,0,0,1,3,14.8,93.34,93.34,0,0,1,1,15.94,99.54,99.54,0,0,1-1.29,14.41,26.4,26.4,0,0,1-3.91,10.56q-2.81,4-6.78,4.05a9.28,9.28,0,0,1-4.9-1.26,8.56,8.56,0,0,1-3.27-3.69,27.56,27.56,0,0,1-1.92-5.39,31.49,31.49,0,0,1-.78-6.94c-.05-2.65,0-5.23.09-7.72s.34-5.29.71-8.39.72-5.87,1.06-8.28.74-5.07,1.19-8q.78-5,1.12-7.44t.63-5.46a17.31,17.31,0,0,0,0-4.34c-.16-.86-.49-1.33-1-1.41a8.26,8.26,0,0,0-1.84,1.6,17.71,17.71,0,0,0-1.62,2.14,22.77,22.77,0,0,0-1.49,2.74c-.51,1.1-.93,2.05-1.25,2.86s-.68,1.83-1.09,3.06-.71,2.13-.88,2.71-.42,1.41-.73,2.48-.48,1.66-.52,1.78a113.13,113.13,0,0,0-4.76,26.39c.18,1.9.3,3.66.34,5.28a47,47,0,0,1-.12,4.77,25.14,25.14,0,0,1-.67,4.2,15.26,15.26,0,0,1-1.33,3.44,8.92,8.92,0,0,1-2.05,2.62,8.8,8.8,0,0,1-2.92,1.64,11.83,11.83,0,0,1-3.85.59q-8.58,0-10.59-9.25-1.57-7.25.8-22.39.47-2.85,3.09-17.26,2.53-13.68,2.66-20.11H191v-3.77a3.65,3.65,0,0,1,.45-1.81,3.18,3.18,0,0,1,1.14-1.21,5.48,5.48,0,0,1,1.93-.69,2.9,2.9,0,0,1,.93,0,5.5,5.5,0,0,1,2,.69,3.18,3.18,0,0,1,1.14,1.21,3.65,3.65,0,0,1,.45,1.81v3.77h0q-.06,6.79,2.56,21.47,1.31-4.74,3.12-9.61c.4-1.07.73-2,1-2.65s.66-1.62,1.16-2.75.94-2.08,1.36-2.86.92-1.68,1.54-2.7a22.54,22.54,0,0,1,1.81-2.59,26.86,26.86,0,0,1,2-2.21,13.62,13.62,0,0,1,2.38-1.87,14.16,14.16,0,0,1,2.69-1.23,12.07,12.07,0,0,1,3-.62A3.9,3.9,0,0,1,223.77,231.89Z"/><path class="cls-1" d="M284,240.16q-.06,6.5,2.44,20.13.31,1.63.93,4.95,2.63,13.89,3.21,20.13,1.23,13.17-2.56,18.15-2.69,3.54-8.07,3.54a13.6,13.6,0,0,1-4-.56,7.18,7.18,0,0,1-3-1.79,14.85,14.85,0,0,1-2.13-2.64,10,10,0,0,1-1.32-3.63c-.27-1.46-.48-2.87-.65-4.23a28.36,28.36,0,0,1-.06-5c.13-1.95.25-3.72.39-5.32s.38-3.52.75-5.79.71-4.24,1-5.9.67-3.68,1.13-6.08H255.77q.91,4.86,1.4,7.63T258.3,281a67.53,67.53,0,0,1,.73,7.06q.08,2.63,0,6.05a16,16,0,0,1-.82,5.41,24.64,24.64,0,0,1-2,3.91,6.79,6.79,0,0,1-3.26,2.78,12.76,12.76,0,0,1-4.82.85q-8.59,0-10.6-9-1.57-7,.81-21.68.47-2.76,3.09-16.74,2.52-13.26,2.65-19.5H246v-3.77a3.58,3.58,0,0,1,.45-1.79,3.25,3.25,0,0,1,1.14-1.21,5.46,5.46,0,0,1,1.93-.67,2.9,2.9,0,0,1,.93,0,5.48,5.48,0,0,1,2,.67,3.25,3.25,0,0,1,1.14,1.21,3.58,3.58,0,0,1,.45,1.79v3.77h0a111.93,111.93,0,0,0,2.13,19h19.09a124.82,124.82,0,0,0,2.47-19H276v-3.68a3.39,3.39,0,0,1,.59-2,3.5,3.5,0,0,1,1.48-1.22,4.61,4.61,0,0,1,1.93-.37,5.35,5.35,0,0,1,1.93.38,3.39,3.39,0,0,1,2.07,3.2v3.68Z"/><path class="cls-1" d="M319.67,230.83q5.77,0,11.89,8.24,6,8.07,10.26,21.09a93,93,0,0,1,4.95,25.47q.51,13-4,18.77a10.16,10.16,0,0,1-8.63,4,3.81,3.81,0,0,1-2.08-.67,5.47,5.47,0,0,1-1.67-1.91,16.66,16.66,0,0,1-1.29-2.88,24.64,24.64,0,0,1-1-3.85c-.28-1.51-.51-3-.7-4.48s-.35-3.2-.49-5.16-.25-3.79-.32-5.49-.16-3.64-.24-5.81H313.17q-.15,3.7-.3,6.63c-.1,1.94-.24,4-.44,6.17s-.43,4.05-.68,5.67a46.56,46.56,0,0,1-1,4.73,17.52,17.52,0,0,1-1.38,3.77,7.67,7.67,0,0,1-1.82,2.36,3.72,3.72,0,0,1-2.36.92q-7.95.12-10.82-8.54-2.79-8.34-.45-22.66a107.22,107.22,0,0,1,7.48-25.36q5.13-11.82,10.91-17.35Q316.16,230.83,319.67,230.83Zm-6.26,39.33H326.1q-.15-5-.27-8c-.08-2-.2-4.34-.38-7.1a62,62,0,0,0-.7-6.56c-.29-1.61-.65-3.21-1.1-4.82a8.41,8.41,0,0,0-1.67-3.48,3.08,3.08,0,0,0-2.31-1.08,2.75,2.75,0,0,0-1.74.62,5.17,5.17,0,0,0-1.38,2,29,29,0,0,0-1,2.89,25.73,25.73,0,0,0-.75,4c-.21,1.67-.39,3.19-.54,4.55s-.27,3.15-.38,5.36-.19,4.06-.24,5.57S313.49,267.69,313.41,270.16Z"/><path class="cls-1" d="M44,334.16v5.16a6.5,6.5,0,0,1-.24,1.69q-.06,3.71-.21,7.4T43,357.14q-.36,5-.88,9.63c-.35,3.05-.81,6.28-1.4,9.69s-1.26,6.55-2,9.4A67.48,67.48,0,0,1,36,394.14a33.62,33.62,0,0,1-3.55,6.75,16.16,16.16,0,0,1-4.53,4.4,10.11,10.11,0,0,1-5.54,1.65l-.15,0H22l-.11,0a10.27,10.27,0,0,1-5.55-1.62A16,16,0,0,1,11.8,401a34,34,0,0,1-3.59-6.63,66.63,66.63,0,0,1-2.79-8.14C4.65,383.4,4,380.31,3.36,377s-1.1-6.56-1.48-9.61-.7-6.22-.95-9.54-.45-6.22-.57-8.69-.21-4.95-.27-7.42a5.18,5.18,0,0,1-.09-1v-6.55a3.83,3.83,0,0,1,.42-1.81,3,3,0,0,1,1.1-1.22,5.38,5.38,0,0,1,1.85-.67,2.64,2.64,0,0,1,1,0,5.33,5.33,0,0,1,1.84.67,3.06,3.06,0,0,1,1.11,1.22,3.83,3.83,0,0,1,.42,1.81,128.67,128.67,0,0,0,.91,15.32A109.15,109.15,0,0,0,11,363.16,87.25,87.25,0,0,0,14.41,374a29.76,29.76,0,0,0,3.89,7.32q2,2.58,3.83,2.58,2,0,4-2.58A26.72,26.72,0,0,0,30,374a83.85,83.85,0,0,0,3.15-10.82,117.64,117.64,0,0,0,2.2-13.67,144.18,144.18,0,0,0,.8-15.32h.15a3.65,3.65,0,0,1,.57-2.05,3.52,3.52,0,0,1,1.43-1.26,4.35,4.35,0,0,1,1.87-.38,4.68,4.68,0,0,1,1.87.4,3.27,3.27,0,0,1,1.43,1.24A3.65,3.65,0,0,1,44,334.16Z"/><path class="cls-1" d="M61,338.16q-.06,6.7,2.44,20.76.31,1.69.93,5.1,2.63,14.33,3.21,20.76,1.23,13.58-2.56,18.71c-1.8,2.43-4.48,3.65-8.07,3.65q-8.58,0-10.59-9.25-1.57-7.25.8-22.36.47-2.85,3.09-17.26,2.53-13.68,2.66-20.11H53v-3.8a3.65,3.65,0,0,1,.45-1.81,3.18,3.18,0,0,1,1.14-1.21,5.28,5.28,0,0,1,1.93-.68,3.22,3.22,0,0,1,.93,0,5.5,5.5,0,0,1,2,.69,3.18,3.18,0,0,1,1.14,1.21,3.65,3.65,0,0,1,.45,1.81v3.8Z"/><path class="cls-1" d="M111.24,367.83a39.67,39.67,0,0,1,10.62,14,29.23,29.23,0,0,1,3,14.24c-.31,4.27-1.86,7.31-4.62,9.13a11.45,11.45,0,0,1-6.5,1.63,6,6,0,0,1-3.88-1.36,9.24,9.24,0,0,1-2.61-3.65,33.59,33.59,0,0,1-1.69-5.16c-.48-1.9-.92-4-1.32-6.2s-.82-4.39-1.25-6.49a48.9,48.9,0,0,0-1.75-6.32,24.69,24.69,0,0,0-2.59-5.4c-.82.1-1.75.17-2.82.21a108.12,108.12,0,0,1,2.49,15.19c.1,2.23.1,4.32,0,6.25a21.86,21.86,0,0,1-.84,5.3,14.72,14.72,0,0,1-1.88,4.09,7.83,7.83,0,0,1-3.13,2.64,10.56,10.56,0,0,1-4.57.93,12.21,12.21,0,0,1-3.87-.57,7.08,7.08,0,0,1-2.89-1.83,14.77,14.77,0,0,1-2-2.73A11.57,11.57,0,0,1,77.85,398c-.28-1.51-.49-3-.64-4.36a32.32,32.32,0,0,1-.06-5.1c.11-2,.23-3.82.37-5.48s.38-3.64.73-6,.66-4.36,1-6.08.64-3.82,1.08-6.29a6.49,6.49,0,0,1,.38-2.1q2-11.4,2.61-15.87a32.73,32.73,0,0,0-4.74,10.56c-4.51.31-7.26-.68-8.25-3q-1.27-3,1.61-7.68a31.79,31.79,0,0,1,8.74-8.95A36.11,36.11,0,0,1,97,330.9a28.74,28.74,0,0,1,19.3,4.3,17.86,17.86,0,0,1,4.49,4.11,15.93,15.93,0,0,1,2.42,4.75,13.71,13.71,0,0,1,.59,5.11,19.73,19.73,0,0,1-1.13,5.21,22.23,22.23,0,0,1-2.56,5,28.49,28.49,0,0,1-3.9,4.57A31.1,31.1,0,0,1,111.24,367.83ZM104,338.38v0a24,24,0,0,0-5.16-.51,6.8,6.8,0,0,0-3.54,1.87,8.78,8.78,0,0,0-2.08,3.4,17.73,17.73,0,0,0-.82,4.76,40.37,40.37,0,0,0,.11,5.6q.26,2.82.81,6.32a16,16,0,0,0,11.39-1.72,17.1,17.1,0,0,0,6.62-6.17q2.49-4.12,1.27-7.65-1.45-4.24-7.8-5.76Z"/><path class="cls-1" d="M175.55,336.16c.79.46,1.47.65,2,1a3.45,3.45,0,0,1,1.26,1.43,4.2,4.2,0,0,1,.38,1.83,4.54,4.54,0,0,1-.4,1.84,3.27,3.27,0,0,1-1.24,1.43,3,3,0,0,1-2,.45H157.11c.37,4,1.37,10.61,3,19.92q2.55,14.35,3.09,21,1.06,13.4-2.82,18.3a9,9,0,0,1-7.45,3.26q-8.23,0-10.17-9.23-1.51-7.23.74-22.33.45-2.87,3-17.26c1-5.71,1.7-10.22,2.07-13.63H130.3a2.93,2.93,0,0,1-2.05-.45,3.45,3.45,0,0,1-1.26-1.43,4.08,4.08,0,0,1-.39-1.84,4.7,4.7,0,0,1,.4-1.83,3.36,3.36,0,0,1,1.25-1.43c.57-.37,1.25-.56,2.05-1H149v-2.33a4.77,4.77,0,0,1,.66-2,3.45,3.45,0,0,1,1.42-1.27,4.28,4.28,0,0,1,1.84-.38,4.54,4.54,0,0,1,1.84.4,3.3,3.3,0,0,1,1.43,1.25,8.34,8.34,0,0,1,.81,2v2.33Z"/><path class="cls-1" d="M226,338.37q.27,3.67,1,8.5t1.63,9.07c.59,2.84,1.15,5.9,1.71,9.18s1,6.32,1.38,9.12a65.24,65.24,0,0,1,.56,8.56,42.34,42.34,0,0,1-.66,7.84,21.81,21.81,0,0,1-2.4,6.6,16.73,16.73,0,0,1-4.51,5.19,21.23,21.23,0,0,1-7.14,3.29,38.36,38.36,0,0,1-10.19,1.22l-.15,0H207l-.14,0a37.73,37.73,0,0,1-10.62-1.34A19.84,19.84,0,0,1,189,402a17.31,17.31,0,0,1-4.43-5.69A22.29,22.29,0,0,1,182.4,389a55.68,55.68,0,0,1-.34-8.48,72.5,72.5,0,0,1,.88-9.21c.48-3.05,1-6.28,1.63-9.7s1.2-6.63,1.79-9.64,1.1-6.11,1.51-9.33a70,70,0,0,0,.61-8.52,3.72,3.72,0,0,1,.55-2.05,3.44,3.44,0,0,1,1.4-1.26,4.14,4.14,0,0,1,1.81-.38,4.47,4.47,0,0,1,1.81.4,3.26,3.26,0,0,1,1.4,1.24,3.72,3.72,0,0,1,.55,2.05v15.45a4,4,0,0,1-.15,1.07q0,3.49,0,6.15c0,1.77.08,3.66.17,5.67s.21,3.75.37,5.24.38,3,.67,4.59a25.37,25.37,0,0,0,1,4,21.05,21.05,0,0,0,1.48,3.15,8.55,8.55,0,0,0,2,2.42,9.24,9.24,0,0,0,2.58,1.44,9.61,9.61,0,0,0,3.26.53,10.9,10.9,0,0,0,5.1-1.12,8.75,8.75,0,0,0,3.43-3.24,19.37,19.37,0,0,0,2.07-5.1,33.39,33.39,0,0,0,1-6.68c.15-2.47.25-5.13.29-8s0-5.88-.15-9a4.42,4.42,0,0,1-.15-1.07v-4.42q-.18-7.11-.18-11h-.34a3.72,3.72,0,0,1,.55-2.05,3.44,3.44,0,0,1,1.4-1.26,4.11,4.11,0,0,1,1.81-.38,4.47,4.47,0,0,1,1.81.4,3.26,3.26,0,0,1,1.4,1.24,3.72,3.72,0,0,1,.55,2.05Z"/><path class="cls-1" d="M261.92,329.83q5.79,0,11.9,8.24,6,8.07,10.26,21.09A93,93,0,0,1,289,384.63q.51,13-4,18.77a10.16,10.16,0,0,1-8.63,4,3.81,3.81,0,0,1-2.08-.67,5.47,5.47,0,0,1-1.67-1.91,16.66,16.66,0,0,1-1.29-2.88,24.64,24.64,0,0,1-1-3.85c-.28-1.51-.51-3-.7-4.48s-.35-3.2-.49-5.16-.25-3.79-.33-5.49-.15-3.64-.23-5.81H255.43q-.15,3.7-.3,6.63c-.1,1.94-.24,4-.44,6.17s-.43,4.05-.68,5.67a46.56,46.56,0,0,1-1,4.73,17.52,17.52,0,0,1-1.38,3.77,7.67,7.67,0,0,1-1.82,2.36,3.72,3.72,0,0,1-2.36.92q-7.95.12-10.82-8.54-2.79-8.34-.45-22.66a107.22,107.22,0,0,1,7.48-25.36q5.13-11.82,10.91-17.35Q258.42,329.83,261.92,329.83Zm-6.25,39.33h12.69q-.15-5-.27-8c-.08-2-.2-4.34-.38-7.1a62,62,0,0,0-.7-6.56c-.29-1.61-.65-3.21-1.1-4.82a8.41,8.41,0,0,0-1.67-3.48,3.1,3.1,0,0,0-2.32-1.08,2.74,2.74,0,0,0-1.73.62,5.17,5.17,0,0,0-1.38,2,26.72,26.72,0,0,0-1,2.89,25.73,25.73,0,0,0-.75,4c-.21,1.67-.39,3.19-.54,4.55s-.27,3.15-.38,5.36-.19,4.06-.24,5.57S255.75,366.69,255.67,369.16Z"/><path class="cls-1" d="M336.31,372.5a6,6,0,0,1,2.55,2.83,16.76,16.76,0,0,1,1.62,5.31,33.58,33.58,0,0,1,.28,6.67,19.47,19.47,0,0,1-1.76,7,23.71,23.71,0,0,1-4.19,6.3,18.61,18.61,0,0,1-7.3,4.59A31.14,31.14,0,0,1,316.66,407a44.52,44.52,0,0,1-10.75-1.16,22.89,22.89,0,0,1-7.49-3.16,16,16,0,0,1-4.69-5,19.29,19.29,0,0,1-2.44-6.42,43.34,43.34,0,0,1-.65-7.68,61.91,61.91,0,0,1,.56-8.5q.57-4.23,1.36-9.16c.52-3.29,1.05-6.42,1.57-9.37s1-6.11,1.33-9.46A86,86,0,0,0,296,338v-3.77a3.63,3.63,0,0,1,.45-1.81,3.18,3.18,0,0,1,1.14-1.21,5.17,5.17,0,0,1,1.55-.61,3.8,3.8,0,0,1,1.71,0,5.13,5.13,0,0,1,1.56.61,3.18,3.18,0,0,1,1.14,1.21,3.63,3.63,0,0,1,.45,1.81v15.45l-.09.71c-.09,3.09-.11,6.07-.08,9s.09,5.59.19,8.12a49.82,49.82,0,0,0,.72,7.05,29.66,29.66,0,0,0,1.56,5.69,11.49,11.49,0,0,0,2.67,4.08,8.59,8.59,0,0,0,4.08,2.19,15.6,15.6,0,0,0,5.3.35,7.62,7.62,0,0,0,3.8-1.58,8.9,8.9,0,0,0,2.42-3,12.1,12.1,0,0,0,1.14-4,6.83,6.83,0,0,1,1.19-3.17,7.48,7.48,0,0,1,2.58-2.32,7.67,7.67,0,0,1,3.38-.93A7.42,7.42,0,0,1,336.31,372.5Z"/><path class="cls-1" d="M200.55,0c12.87,0,23.3,19.58,23.3,36.16s-10.43,30-23.3,30-23.31-13.45-23.31-30S187.68,0,200.55,0Z"/><path class="cls-1" d="M134.34,0c12.87,0,23.3,19.58,23.3,36.16s-10.43,30-23.3,30S111,52.75,111,36.16,121.47,0,134.34,0Z"/><path class="cls-1" d="M64.55,87.48c-5.46-13.68-3.07-33.37,7.84-37.72S98.59,58,104.06,71.7s1,28.31-9.86,32.66S70,101.16,64.55,87.48Z"/><path class="cls-1" d="M270.33,87.48c-5.46,13.68-18.74,21.24-29.65,16.88s-15.32-19-9.86-32.66,20.76-26.3,31.67-21.94S275.8,73.8,270.33,87.48Z"/><path class="cls-1" d="M250.81,163.06c-2.5-11.21-8.46-21.31-15.05-30.68-15.44-21.94-40.17-44.1-68.32-44.1s-52.88,22.16-68.32,44.1c-6.59,9.37-12.55,19.47-15.05,30.68s-1.13,23.74,5.82,32.84,20.09,13.65,30.37,8.73c6.11-2.93,11.06-8.84,17.81-9.41,6.19-.52,11.66,3.65,16.83,7.14,3.73,2.52,8.23,4.81,12.54,4.84s8.81-2.32,12.55-4.84c5.16-3.49,10.63-7.66,16.82-7.14,6.75.57,11.7,6.48,17.81,9.41,10.28,4.92,23.44.38,30.38-8.73S253.31,174.27,250.81,163.06ZM144.38,123.38a32.48,32.48,0,0,1,22.91-9.51,25.7,25.7,0,0,1,16.37,31,23.85,23.85,0,0,1-.74,2.31A15.4,15.4,0,0,0,167.44,131a15.76,15.76,0,0,0-1.68.09,27.8,27.8,0,0,0-24.51,34.86A32.75,32.75,0,0,1,144.38,123.38Zm23.91,21.71V136.4a9.62,9.62,0,0,1,8.69,8.69Zm8.69,2.47a9.63,9.63,0,0,1-8.69,8.7v-8.7Zm-19-2.47a9.63,9.63,0,0,1,8.7-8.69v8.69Zm8.7,2.47v8.7a9.64,9.64,0,0,1-8.7-8.7Zm.8,45-22.95-23a26,26,0,0,1,12-34.16,15.62,15.62,0,0,0,0,22l10.35,10.35a20.07,20.07,0,0,0,20.28,5.15Zm23.14-23.14a18.3,18.3,0,0,1-21.87-2.29l9.72-9.72.35-.36a27.48,27.48,0,0,0-6.37-42.83,32.58,32.58,0,0,1,18.17,55.2Z"/></g></g></svg>